<?xml version="1.0" encoding="UTF-8" standalone="no"?>
<svg width="167px" height="75px" viewBox="0 0 167 75" version="1.1" xmlns="http://www.w3.org/2000/svg" xmlns:xlink="http://www.w3.org/1999/xlink">
    <!-- Generator: Sketch 50.2 (55047) - http://www.bohemiancoding.com/sketch -->
    <title>Logo_mendel_vertical</title>
    <desc>Created with Sketch.</desc>
    <defs>
        <linearGradient x1="8.44451202%" y1="97.4263701%" x2="80.131294%" y2="9.92295179%" id="linearGradient-1">
            <stop stop-color="#006888" offset="0%"></stop>
            <stop stop-color="#32BBD8" offset="49%"></stop>
            <stop stop-color="#32BBD8" offset="100%"></stop>
        </linearGradient>
        <linearGradient x1="14.4571084%" y1="27.7345655%" x2="105.378328%" y2="94.9305942%" id="linearGradient-2">
            <stop stop-color="#32BBD8" offset="0%"></stop>
            <stop stop-color="#32BBD8" offset="47%"></stop>
            <stop stop-color="#006888" offset="100%"></stop>
        </linearGradient>
        <linearGradient x1="85.3127938%" y1="27.7127736%" x2="-5.4030131%" y2="94.9290655%" id="linearGradient-3">
            <stop stop-color="#32BBD8" offset="0%"></stop>
            <stop stop-color="#32BBD8" offset="41%"></stop>
            <stop stop-color="#006888" offset="100%"></stop>
        </linearGradient>
        <linearGradient x1="13.0907626%" y1="92.9777954%" x2="88.0370569%" y2="-10.5235089%" id="linearGradient-4">
            <stop stop-color="#32BBD8" offset="0%"></stop>
            <stop stop-color="#32BBD8" offset="49%"></stop>
            <stop stop-color="#006888" offset="100%"></stop>
        </linearGradient>
        <linearGradient x1="25.5996084%" y1="-2.65201825%" x2="74.0088106%" y2="64.0616031%" id="linearGradient-5">
            <stop stop-color="#006888" offset="0%"></stop>
            <stop stop-color="#00A6C5" offset="100%"></stop>
        </linearGradient>
        <linearGradient x1="18.0221811%" y1="2.04143148%" x2="82.0332717%" y2="90.2766364%" id="linearGradient-6">
            <stop stop-color="#006888" offset="0%"></stop>
            <stop stop-color="#32BBD8" offset="56%"></stop>
            <stop stop-color="#32BBD8" offset="100%"></stop>
        </linearGradient>
        <linearGradient x1="91.5961972%" y1="97.3511946%" x2="19.5897012%" y2="9.64075228%" id="linearGradient-7">
            <stop stop-color="#006888" offset="0%"></stop>
            <stop stop-color="#32BBD8" offset="41%"></stop>
            <stop stop-color="#32BBD8" offset="100%"></stop>
        </linearGradient>
    </defs>
    <g id="Symbols" stroke="none" stroke-width="1" fill="none" fill-rule="evenodd">
        <g id="Contact-Us/fin" transform="translate(-636.000000, -364.000000)">
            <g id="Group" transform="translate(0.000000, 216.000000)">
                <g id="Logo_mendel_vertical" transform="translate(636.000000, 148.000000)">
                    <path d="M10.5244082,71.4613636 L13.0123673,71.4613636 L20.3671837,62.5977273 L20.3671837,74.6659091 L23.5367755,74.6659091 L23.5367755,59.1681818 L20.394449,59.1681818 C19.5027729,59.1542862 18.6693485,59.6099465 18.1995918,60.3681818 L11.7717959,68.2704545 L5.344,60.3681818 C4.87328052,59.6109644 4.04048229,59.1556464 3.14914286,59.1681818 L0,59.1681818 L0,74.6522727 L3.16959184,74.6522727 L3.16959184,62.5840909 L10.5244082,71.4613636 Z" id="Shape" fill="#FFFFFF"></path>
                    <path d="M52.2812245,62.2431818 L52.2812245,59.1681818 L40.0118367,59.1681818 C34.4633469,59.1681818 32.5138776,61.8136364 32.5138776,66.9068182 C32.5138776,72 34.4360816,74.6522727 40.0118367,74.6522727 L52.2812245,74.6522727 L52.2812245,71.55 L40.0118367,71.55 C36.9785714,71.55 36.072,70.4181818 35.8470612,68.3590909 L52.0153878,68.3590909 L52.0153878,65.4545455 L35.8538776,65.4545455 C36.0788163,63.4090909 36.9853878,62.2363636 40.0186531,62.2363636 L52.2812245,62.2431818 Z" id="Shape" fill="#FFFFFF"></path>
                    <path d="M64.755102,62.4477273 C66.3228571,62.4477273 66.4319184,62.7 70.3922041,67.9022727 C74.6251429,73.4522727 75.7839184,74.6727273 79.6078776,74.6727273 L81.8913469,74.6727273 L81.8913469,59.1681818 L78.6535918,59.1681818 L78.6535918,71.3727273 C76.9767755,71.3727273 76.7041224,71.0045455 73.0164898,65.9181818 C69.1039184,60.5113636 67.9724082,59.175 63.8076327,59.175 L61.5377959,59.175 L61.5377959,74.6590909 L64.755102,74.6590909 L64.755102,62.4477273 Z" id="Shape" fill="#FFFFFF"></path>
                    <path d="M91.6455102,74.6522727 L104.364776,74.6522727 C109.906449,74.6522727 111.808204,72.0068182 111.808204,66.9068182 C111.808204,61.8068182 109.906449,59.1681818 104.364776,59.1681818 L91.6455102,59.1681818 L91.6455102,74.6522727 Z M108.502286,66.9068182 C108.502286,69.8727273 108.052408,71.4818182 104.364776,71.4818182 L94.876449,71.4818182 L94.876449,62.3113636 L104.364776,62.3113636 C108.052408,62.3113636 108.502286,63.9409091 108.502286,66.9068182 Z" id="Shape" fill="#FFFFFF"></path>
                    <path d="M139.850571,62.2431818 L139.850571,59.1681818 L127.581184,59.1681818 C122.03951,59.1681818 120.117306,61.8136364 120.117306,66.9068182 C120.117306,72 122.03951,74.6522727 127.581184,74.6522727 L139.850571,74.6522727 L139.850571,71.55 L127.581184,71.55 C124.547918,71.55 123.648163,70.4181818 123.416408,68.3590909 L139.577918,68.3590909 L139.577918,65.4545455 L123.416408,65.4545455 C123.648163,63.4090909 124.547918,62.2363636 127.581184,62.2363636 L139.850571,62.2431818 Z" id="Shape" fill="#FFFFFF"></path>
                    <path d="M148.950367,59.1681818 L148.950367,68.2431818 C148.950367,72.8863636 151.302,74.6522727 156.448327,74.6522727 L166.768245,74.6522727 L166.768245,71.4818182 L156.421061,71.4818182 C153.162857,71.4818182 152.188122,70.8 152.188122,68.2431818 L152.188122,59.1681818 L148.950367,59.1681818 Z" id="Shape" fill="#FFFFFF"></path>
                    <path d="M67.9587755,12.7227273 L69.3220408,11.3590909 L69.4242857,11.2568182 L70.0241224,10.6568182 C71.7809864,8.90083165 74.1659911,7.91908109 76.6495918,7.92954545 C78.7967741,7.91952555 80.8834091,8.64090905 82.5661633,9.975 L75.9270612,3.40909091 C72.2634254,-0.246630614 66.3329419,-0.246630614 62.6693061,3.40909091 L51.9949388,14.1 L50.9179592,15.1772727 C48.307161,18.8952891 48.7471883,23.9526655 51.9608571,27.1636364 L52.731102,27.9545455 L54.482898,26.2022727 L67.9587755,12.7227273 Z" id="Shape" fill="url(#linearGradient-1)"></path>
                    <path d="M59.4179184,34.6704545 L51.9608571,27.1704545 C48.74345,23.9584843 48.3032863,18.8966626 50.9179592,15.1772727 L44.7832653,21.3136364 C43.0273599,23.0735012 42.0459681,25.4613865 42.0567347,27.9477273 C42.0117442,30.0404336 42.824468,32.0604788 44.3061224,33.5386364 L46.5009796,35.7340909 C50.2341002,38.722739 55.6159948,38.4292079 59.0021224,35.0522727 L59.4179184,34.6704545 Z" id="Shape" fill="url(#linearGradient-2)"></path>
                    <path d="M107.329878,34.6704545 L114.786939,27.1704545 C118.000608,23.9594837 118.440635,18.9021072 115.829837,15.1840909 L121.964531,21.3204545 C123.73538,23.0741826 124.733887,25.4619258 124.738776,27.9545455 C124.770776,30.0535464 123.937512,32.0731575 122.434857,33.5386364 L120.24,35.7340909 C116.506879,38.722739 111.124985,38.4292079 107.738857,35.0522727 L107.329878,34.6704545 Z" id="Shape" fill="url(#linearGradient-3)"></path>
                    <path d="M61.0742857,33.0136364 L59.7110204,34.3772727 L59.0293878,35.0590909 C55.6432601,38.4360261 50.2613655,38.7295572 46.5282449,35.7409091 L53.106,42.3136364 C56.7696358,45.9693579 62.7001193,45.9693579 66.3637551,42.3136364 L97.214449,11.3181818 L97.2962449,11.2363636 L96.6623265,10.6022727 C93.2789101,7.21925678 87.8922701,6.92546692 84.1611837,9.92045455 L61.0742857,33.0136364 Z" id="Shape" fill="url(#linearGradient-4)"></path>
                    <path d="M76.0974694,17.9863636 L70.099102,11.9795455 L69.4174694,11.2977273 L70.0173061,10.6977273 C73.4881671,7.24091253 79.0273601,7.01869192 82.7638367,10.1863636 L83.3432245,10.7659091 L76.0974694,17.9863636 Z" id="Shape" fill="url(#linearGradient-5)"></path>
                    <path d="M107.697959,35.0522727 C111.084087,38.4292079 116.465981,38.722739 120.199102,35.7340909 L113.628163,42.3068182 C109.960645,45.9595819 104.03111,45.9595819 100.363592,42.3068182 L83.3227755,25.2613636 L90.5617143,17.9931818 L107.697959,35.0522727 Z" id="Shape" fill="url(#linearGradient-6)"></path>
                    <path d="M98.7822041,12.7227273 L97.4189388,11.3590909 L96.7373061,10.6772727 L96.6691429,10.6159091 C93.4965903,7.4452674 88.5248815,6.96252904 84.8019184,9.46363636 L84.7610204,9.46363636 C84.5906122,9.57954545 84.4270204,9.70227273 84.2634286,9.825 L84.2634286,9.85909091 L90.8139184,3.40909091 C94.4814361,-0.243672832 100.410972,-0.243672832 104.07849,3.40909091 L114.752857,14.0863636 L115.829837,15.1636364 C118.440635,18.8816527 118.000608,23.9390292 114.786939,27.15 L114.009878,27.9545455 L112.258082,26.2022727 L98.7822041,12.7227273 Z" id="Shape" fill="url(#linearGradient-7)"></path>
                </g>
            </g>
        </g>
    </g>
</svg>